<svg width="400" height="401" viewBox="0 0 400 401" fill="none" xmlns="http://www.w3.org/2000/svg">
<path fill-rule="evenodd" clip-rule="evenodd" d="M200 0.666504C310.456 0.666504 400 90.2105 400 200.667C400 302.923 323.256 387.243 224.232 399.203V261.785H278.335L278.34 261.763H278.4L288.989 203.976L289.599 200.665H289.596L289.6 200.643H224.231V179.065C224.231 146.769 236.903 134.345 269.695 134.345C279.879 134.345 288.095 134.593 292.799 135.089V79.6726C283.855 77.1846 261.991 74.7046 249.319 74.7046C244.386 74.7046 239.65 74.8765 235.108 75.2223C178.117 79.5539 151.688 111.274 151.688 174.331V200.665H110.439V261.785L110.44 261.787H151.687V394.777C151.687 394.777 151.688 394.777 151.687 394.777L151.688 394.779C64.576 373.163 0 294.459 0 200.667C0 90.2105 89.544 0.666504 200 0.666504Z" fill="black"/>
</svg>
