<svg width="400" height="401" viewBox="0 0 400 401" fill="none" xmlns="http://www.w3.org/2000/svg">
<g clip-path="url(#clip0_3202_226)">
<path fill-rule="evenodd" clip-rule="evenodd" d="M356.132 67.3012C373.405 72.0739 387.042 85.7103 391.587 102.983C399.996 134.347 399.996 199.801 399.996 199.801C399.996 199.801 399.996 265.256 391.814 296.619C387.042 314.119 373.632 327.756 356.36 332.301C324.996 340.71 199.996 340.71 199.996 340.71C199.996 340.71 74.9961 340.71 43.8597 332.301C26.587 327.528 12.9506 313.892 8.40518 296.619C-0.00390625 265.256 -0.00390625 199.801 -0.00390625 199.801C-0.00390625 199.801 -0.00390625 134.347 8.17791 102.983C12.9506 85.483 26.3597 71.8466 43.6325 67.3012C74.9961 58.8921 199.996 58.8921 199.996 58.8921C199.996 58.8921 324.996 58.8921 356.132 67.3012ZM263.632 199.801L159.087 259.347V140.256L263.632 199.801Z" fill="#282828"/>
</g>
<defs>
<clipPath id="clip0_3202_226">
<rect width="400" height="400" fill="white" transform="translate(0 0.14209)"/>
</clipPath>
</defs>
</svg>
